<?xml version="1.0" encoding="UTF-8" standalone="no"?>
<!-- Created with Inkscape (http://www.inkscape.org/) -->

<svg
   xmlns:dc="http://purl.org/dc/elements/1.1/"
   xmlns:cc="http://creativecommons.org/ns#"
   xmlns:rdf="http://www.w3.org/1999/02/22-rdf-syntax-ns#"
   xmlns:svg="http://www.w3.org/2000/svg"
   xmlns="http://www.w3.org/2000/svg"
   xmlns:sodipodi="http://sodipodi.sourceforge.net/DTD/sodipodi-0.dtd"
   xmlns:inkscape="http://www.inkscape.org/namespaces/inkscape"
   width="744.09448819"
   height="1052.3622047"
   id="svg2"
   version="1.1"
   inkscape:version="0.48.2 r9819"
   sodipodi:docname="space_sweeper.svg">
  <defs
     id="defs4" />
  <sodipodi:namedview
     id="base"
     pagecolor="#ffffff"
     bordercolor="#666666"
     borderopacity="1.0"
     inkscape:pageopacity="0.0"
     inkscape:pageshadow="2"
     inkscape:zoom="0.24748737"
     inkscape:cx="324.40827"
     inkscape:cy="-45.219452"
     inkscape:document-units="px"
     inkscape:current-layer="layer1"
     showgrid="false"
     showborder="false"
     inkscape:showpageshadow="false"
     inkscape:window-width="1177"
     inkscape:window-height="1045"
     inkscape:window-x="86"
     inkscape:window-y="30"
     inkscape:window-maximized="0" />
  <metadata
     id="metadata7">
    <rdf:RDF>
      <cc:Work
         rdf:about="">
        <dc:format>image/svg+xml</dc:format>
        <dc:type
           rdf:resource="http://purl.org/dc/dcmitype/StillImage" />
        <dc:title></dc:title>
      </cc:Work>
    </rdf:RDF>
  </metadata>
  <g
     inkscape:label="Layer 1"
     inkscape:groupmode="layer"
     id="layer1">
    <rect
       style="fill:#000000;fill-opacity:1;fill-rule:nonzero;stroke:none"
       id="rect2985"
       width="3440"
       height="1654.2858"
       x="-1406.9819"
       y="-257.3927" />
    <rect
       style="fill:#ffffff;fill-opacity:1;fill-rule:nonzero;stroke:none"
       id="rect2987"
       width="585.53162"
       height="214.28572"
       x="-16.97464"
       y="393.42667" />
    <rect
       style="fill:#ffffff;fill-opacity:1;fill-rule:nonzero;stroke:none"
       id="rect2989"
       width="102.85714"
       height="100.00001"
       x="539.71283"
       y="66.528938" />
    <path
       sodipodi:type="arc"
       style="fill:#5b6ee1;fill-opacity:1;fill-rule:nonzero;stroke:none"
       id="path2991"
       sodipodi:cx="425.71429"
       sodipodi:cy="1470.9336"
       sodipodi:rx="1234.2858"
       sodipodi:ry="198.57143"
       d="m 1660.0001,1470.9336 a 1234.2858,198.57143 0 1 1 -2468.57157,0 1234.2858,198.57143 0 1 1 2468.57157,0 z"
       transform="matrix(0.88378574,0,0,4.2252209,-60.914593,-4415.6374)" />
    <path
       sodipodi:type="star"
       style="fill:#8f563b;fill-opacity:1;fill-rule:nonzero;stroke:none"
       id="path2993"
       sodipodi:sides="8"
       sodipodi:cx="-871.42859"
       sodipodi:cy="38.076469"
       sodipodi:r1="133.40134"
       sodipodi:r2="115.52895"
       sodipodi:arg1="0.7551044"
       sodipodi:arg2="1.1478035"
       inkscape:flatsided="true"
       inkscape:rounded="1.0408341e-17"
       inkscape:randomized="0"
       d="m -774.28574,129.50504 -93.10224,41.91156 -95.46918,-36.19728 -41.91154,-93.10224 36.19726,-95.469177 93.10224,-41.911563 95.46918,36.197277 41.91156,93.102242 z"
       transform="matrix(0.69696968,0,0,0.66666665,1909.8103,-57.46884)" />
    <path
       transform="translate(2505.8332,148.78891)"
       d="m -774.28574,129.50504 -93.10224,41.91156 -95.46918,-36.19728 -41.91154,-93.10224 36.19726,-95.469177 93.10224,-41.911563 95.46918,36.197277 41.91156,93.102242 z"
       inkscape:randomized="0"
       inkscape:rounded="1.0408341e-17"
       inkscape:flatsided="true"
       sodipodi:arg2="1.1478035"
       sodipodi:arg1="0.7551044"
       sodipodi:r2="115.52895"
       sodipodi:r1="133.40134"
       sodipodi:cy="38.076469"
       sodipodi:cx="-871.42859"
       sodipodi:sides="8"
       id="path2995"
       style="fill:#8f563b;fill-opacity:1;fill-rule:nonzero;stroke:none"
       sodipodi:type="star" />
    <path
       sodipodi:type="star"
       style="fill:#8f563b;fill-opacity:1;fill-rule:nonzero;stroke:none"
       id="path2997"
       sodipodi:sides="8"
       sodipodi:cx="-871.42859"
       sodipodi:cy="38.076469"
       sodipodi:r1="133.40134"
       sodipodi:r2="115.52895"
       sodipodi:arg1="0.7551044"
       sodipodi:arg2="1.1478035"
       inkscape:flatsided="true"
       inkscape:rounded="1.0408341e-17"
       inkscape:randomized="0"
       d="m -774.28574,129.50504 -93.10224,41.91156 -95.46918,-36.19728 -41.91154,-93.10224 36.19726,-95.469177 93.10224,-41.911563 95.46918,36.197277 41.91156,93.102242 z"
       transform="matrix(0.74242423,0,0,0.77272726,2038.1213,665.73713)" />
    <path
       style="fill:none;stroke:#ab9db2;stroke-width:4.33426237;stroke-linecap:butt;stroke-linejoin:miter;stroke-miterlimit:4;stroke-opacity:1;stroke-dasharray:none"
       d="M 203.17278,392.88458 C 544.60242,126.05465 260.83447,-7.4075748 539.87518,123.41099"
       id="path3003"
       inkscape:connector-curvature="0" />
    <path
       sodipodi:type="arc"
       style="fill:#ac3232;stroke:none;stroke-width:3;stroke-linecap:round;stroke-miterlimit:4;stroke-opacity:1;stroke-dasharray:none;fill-opacity:1"
       id="path3792"
       sodipodi:cx="-1006.1119"
       sodipodi:cy="145.24519"
       sodipodi:rx="16.162441"
       sodipodi:ry="22.223356"
       d="m -989.94944,145.24519 a 16.162441,22.223356 0 1 1 -32.32486,0 16.162441,22.223356 0 1 1 32.32486,0 z" />
    <path
       d="m -989.94944,145.24519 a 16.162441,22.223356 0 1 1 -32.32486,0 16.162441,22.223356 0 1 1 32.32486,0 z"
       sodipodi:ry="22.223356"
       sodipodi:rx="16.162441"
       sodipodi:cy="145.24519"
       sodipodi:cx="-1006.1119"
       id="path3794"
       style="fill:#ac3232;fill-opacity:1;stroke:none"
       sodipodi:type="arc"
       transform="translate(52.527932,-52.527932)" />
    <path
       transform="translate(109.09647,-113.13708)"
       sodipodi:type="arc"
       style="fill:#ac3232;fill-opacity:1;stroke:none"
       id="path3796"
       sodipodi:cx="-1006.1119"
       sodipodi:cy="145.24519"
       sodipodi:rx="16.162441"
       sodipodi:ry="22.223356"
       d="m -989.94944,145.24519 a 16.162441,22.223356 0 1 1 -32.32486,0 16.162441,22.223356 0 1 1 32.32486,0 z" />
    <rect
       style="fill:#45283c;fill-opacity:1;fill-rule:nonzero;stroke:none"
       id="rect3798"
       width="40.406105"
       height="149.50258"
       x="476.57526"
       y="-301.02548"
       transform="matrix(0,1,-1,0,0,0)"
       inkscape:transform-center-x="-74.751289"
       inkscape:transform-center-y="-72.730983" />
    <path
       sodipodi:type="arc"
       style="fill:#45283c;fill-opacity:1;fill-rule:nonzero;stroke:none"
       id="path3800"
       sodipodi:cx="139.40105"
       sodipodi:cy="523.04224"
       sodipodi:rx="50.507626"
       sodipodi:ry="48.487324"
       d="m 189.90867,523.04224 a 50.507626,48.487324 0 1 1 -101.015249,0 50.507626,48.487324 0 1 1 101.015249,0 z"
       transform="translate(-12.121831,-24.243661)" />
    <path
       sodipodi:type="star"
       style="fill:#6abe30;fill-opacity:1;fill-rule:nonzero;stroke:none"
       id="path3802"
       sodipodi:sides="8"
       sodipodi:cx="84.852814"
       sodipodi:cy="1197.8241"
       sodipodi:r1="196.16736"
       sodipodi:r2="181.23502"
       sodipodi:arg1="0.56514944"
       sodipodi:arg2="0.95784852"
       inkscape:flatsided="true"
       inkscape:rounded="1.0408341e-17"
       inkscape:randomized="0"
       d="m 250.51783,1302.88 -122.80787,86.3727 -147.913011,-25.7636 -86.372709,-122.8079 25.763557,-147.913 122.807874,-86.3727 147.913009,25.7636 86.3727,122.8079 z"
       transform="matrix(1.0316615,0,0,1.0422153,-243.10287,151.46397)" />
    <path
       sodipodi:type="star"
       style="fill:#6abe30;fill-opacity:1;fill-rule:nonzero;stroke:none"
       id="path3804"
       sodipodi:sides="8"
       sodipodi:cx="452.54834"
       sodipodi:cy="1230.149"
       sodipodi:r1="155.96965"
       sodipodi:r2="144.09715"
       sodipodi:arg1="0.28897541"
       sodipodi:arg2="0.68167449"
       inkscape:flatsided="true"
       inkscape:rounded="1.0408341e-17"
       inkscape:randomized="0"
       d="m 602.05092,1274.5958 -75.21686,92.6961 -118.73243,12.3597 -92.69615,-75.2168 -12.35972,-118.7325 75.21686,-92.6961 118.73243,-12.3597 92.69615,75.2168 z"
       transform="matrix(2.054054,0,0,2.027027,-279.0205,-1077.5282)" />
    <path
       sodipodi:type="star"
       style="fill:#6abe30;fill-opacity:1;fill-rule:nonzero;stroke:none"
       id="path3806"
       sodipodi:sides="8"
       sodipodi:cx="-234.35539"
       sodipodi:cy="2115.0427"
       sodipodi:r1="252.23895"
       sodipodi:r2="233.03841"
       sodipodi:arg1="0.61466295"
       sodipodi:arg2="1.007362"
       inkscape:flatsided="true"
       inkscape:rounded="1.0408341e-17"
       inkscape:randomized="0"
       d="m -28.284274,2260.5047 -163.213976,103.1095 -188.31911,-42.5004 -103.10946,-163.2139 42.50031,-188.3191 163.21397,-103.1095 188.319113,42.5003 103.109462,163.214 z"
       transform="matrix(1.2682129,0,0,1.121915,323.4765,-191.18529)" />
  </g>
</svg>
