<?xml version="1.0" encoding="UTF-8" standalone="no"?>
<!-- Created with Inkscape (http://www.inkscape.org/) -->

<svg
   xmlns:dc="http://purl.org/dc/elements/1.1/"
   xmlns:cc="http://creativecommons.org/ns#"
   xmlns:rdf="http://www.w3.org/1999/02/22-rdf-syntax-ns#"
   xmlns:svg="http://www.w3.org/2000/svg"
   xmlns="http://www.w3.org/2000/svg"
   xmlns:sodipodi="http://sodipodi.sourceforge.net/DTD/sodipodi-0.dtd"
   xmlns:inkscape="http://www.inkscape.org/namespaces/inkscape"
   width="744.09448819"
   height="1052.3622047"
   id="svg2"
   version="1.1"
   inkscape:version="0.48.2 r9819"
   sodipodi:docname="space_sweeper.svg">
  <defs
     id="defs4" />
  <sodipodi:namedview
     id="base"
     pagecolor="#ffffff"
     bordercolor="#666666"
     borderopacity="1.0"
     inkscape:pageopacity="0.0"
     inkscape:pageshadow="2"
     inkscape:zoom="0.69999999"
     inkscape:cx="-1370.1467"
     inkscape:cy="910.23874"
     inkscape:document-units="px"
     inkscape:current-layer="layer1"
     showgrid="false"
     showborder="false"
     inkscape:showpageshadow="false"
     inkscape:window-width="1958"
     inkscape:window-height="1060"
     inkscape:window-x="455"
     inkscape:window-y="89"
     inkscape:window-maximized="0" />
  <metadata
     id="metadata7">
    <rdf:RDF>
      <cc:Work
         rdf:about="">
        <dc:format>image/svg+xml</dc:format>
        <dc:type
           rdf:resource="http://purl.org/dc/dcmitype/StillImage" />
        <dc:title></dc:title>
      </cc:Work>
    </rdf:RDF>
  </metadata>
  <g
     inkscape:label="Layer 1"
     inkscape:groupmode="layer"
     id="layer1">
    <rect
       style="fill:#000000;fill-opacity:1;fill-rule:nonzero;stroke:none"
       id="rect2985"
       width="1019.6744"
       height="611.80835"
       x="-1132.2205"
       y="-180.62111" />
    <rect
       style="fill:#ffffff;fill-opacity:1;fill-rule:nonzero;stroke:none"
       id="rect2987"
       width="319.78922"
       height="117.03255"
       x="-805.83142"
       y="28.168543"
       inkscape:export-filename="/Users/henri/projects/spacesweeper/core/assets/ship1.png"
       inkscape:export-xdpi="90"
       inkscape:export-ydpi="90" />
    <rect
       style="fill:#ffffff;fill-opacity:1;fill-rule:nonzero;stroke:none"
       id="rect2989"
       width="102.85714"
       height="100.00001"
       x="-417.9118"
       y="-91.054863" />
    <path
       sodipodi:type="arc"
       style="fill:#5b6ee1;fill-opacity:1;fill-rule:nonzero;stroke:none"
       id="path2991"
       sodipodi:cx="425.71429"
       sodipodi:cy="1470.9336"
       sodipodi:rx="1234.2858"
       sodipodi:ry="198.57143"
       d="m 1660.0001,1470.9336 a 1234.2858,198.57143 0 1 1 -2468.57157,0 1234.2858,198.57143 0 1 1 2468.57157,0 z"
       transform="matrix(0.48268127,0,0,2.3076125,-801.4191,-2638.4051)" />
    <path
       sodipodi:type="star"
       style="fill:#8f563b;fill-opacity:1;fill-rule:nonzero;stroke:none"
       id="path2993"
       sodipodi:sides="8"
       sodipodi:cx="-871.42859"
       sodipodi:cy="38.076469"
       sodipodi:r1="133.40134"
       sodipodi:r2="115.52895"
       sodipodi:arg1="0.7551044"
       sodipodi:arg2="1.1478035"
       inkscape:flatsided="true"
       inkscape:rounded="1.0408341e-17"
       inkscape:randomized="0"
       d="m -774.28574,129.50504 -93.10224,41.91156 -95.46918,-36.19728 -41.91154,-93.10224 36.19726,-95.469177 93.10224,-41.911563 95.46918,36.197277 41.91156,93.102242 z"
       transform="matrix(0.30347034,0,0,0.30620143,-77.565958,-116.05174)" />
    <path
       transform="matrix(0.43541398,0,0,0.45930215,181.95074,-21.317113)"
       d="m -774.28574,129.50504 -93.10224,41.91156 -95.46918,-36.19728 -41.91154,-93.10224 36.19726,-95.469177 93.10224,-41.911563 95.46918,36.197277 41.91156,93.102242 z"
       inkscape:randomized="0"
       inkscape:rounded="1.0408341e-17"
       inkscape:flatsided="true"
       sodipodi:arg2="1.1478035"
       sodipodi:arg1="0.7551044"
       sodipodi:r2="115.52895"
       sodipodi:r1="133.40134"
       sodipodi:cy="38.076469"
       sodipodi:cx="-871.42859"
       sodipodi:sides="8"
       id="path2995"
       style="fill:#8f563b;fill-opacity:1;fill-rule:nonzero;stroke:none"
       sodipodi:type="star" />
    <path
       sodipodi:type="star"
       style="fill:#8f563b;fill-opacity:1;fill-rule:nonzero;stroke:none"
       id="path2997"
       sodipodi:sides="8"
       sodipodi:cx="-871.42859"
       sodipodi:cy="38.076469"
       sodipodi:r1="133.40134"
       sodipodi:r2="115.52895"
       sodipodi:arg1="0.7551044"
       sodipodi:arg2="1.1478035"
       inkscape:flatsided="true"
       inkscape:rounded="1.0408341e-17"
       inkscape:randomized="0"
       d="m -774.28574,129.50504 -93.10224,41.91156 -95.46918,-36.19728 -41.91154,-93.10224 36.19726,-95.469177 93.10224,-41.911563 95.46918,36.197277 41.91156,93.102242 z"
       transform="matrix(0.32326189,0,0,0.35491529,-21.697552,216.11832)" />
    <path
       style="fill:none;stroke:#ab9db2;stroke-width:4.33426237;stroke-linecap:butt;stroke-linejoin:miter;stroke-miterlimit:4;stroke-opacity:1;stroke-dasharray:none"
       d="m -722.12696,251.46322 c 341.42964,-266.829928 57.66169,-400.29215 336.7024,-269.473588"
       id="path3003"
       inkscape:connector-curvature="0" />
    <path
       sodipodi:type="arc"
       style="fill:#ac3232;fill-opacity:1;stroke:none"
       id="path3792"
       sodipodi:cx="-1006.1119"
       sodipodi:cy="145.24519"
       sodipodi:rx="16.162441"
       sodipodi:ry="22.223356"
       d="m -989.94944,145.24519 a 16.162441,22.223356 0 1 1 -32.32486,0 16.162441,22.223356 0 1 1 32.32486,0 z"
       transform="matrix(0.49497473,0,0,0.35998163,-857.20086,124.35554)"
       inkscape:export-filename="/Users/henri/projects/spacesweeper/core/assets/bullet1.png"
       inkscape:export-xdpi="90"
       inkscape:export-ydpi="90" />
    <path
       d="m -989.94944,145.24519 a 16.162441,22.223356 0 1 1 -32.32486,0 16.162441,22.223356 0 1 1 32.32486,0 z"
       sodipodi:ry="22.223356"
       sodipodi:rx="16.162441"
       sodipodi:cy="145.24519"
       sodipodi:cx="-1006.1119"
       id="path3794"
       style="fill:#ac3232;fill-opacity:1;stroke:none"
       sodipodi:type="arc"
       transform="translate(52.527932,-52.527932)" />
    <path
       transform="translate(109.09647,-113.13708)"
       sodipodi:type="arc"
       style="fill:#ac3232;fill-opacity:1;stroke:none"
       id="path3796"
       sodipodi:cx="-1006.1119"
       sodipodi:cy="145.24519"
       sodipodi:rx="16.162441"
       sodipodi:ry="22.223356"
       d="m -989.94944,145.24519 a 16.162441,22.223356 0 1 1 -32.32486,0 16.162441,22.223356 0 1 1 32.32486,0 z" />
    <path
       sodipodi:type="star"
       style="fill:#6abe30;fill-opacity:1;fill-rule:nonzero;stroke:none"
       id="path3802"
       sodipodi:sides="8"
       sodipodi:cx="84.852814"
       sodipodi:cy="1197.8241"
       sodipodi:r1="196.16736"
       sodipodi:r2="181.23502"
       sodipodi:arg1="0.56514944"
       sodipodi:arg2="0.95784852"
       inkscape:flatsided="true"
       inkscape:rounded="1.0408341e-17"
       inkscape:randomized="0"
       d="m 250.51783,1302.88 -122.80787,86.3727 -147.913011,-25.7636 -86.372709,-122.8079 25.763557,-147.913 122.807874,-86.3727 147.913009,25.7636 86.3727,122.8079 z"
       transform="matrix(0.5634439,0,0,0.56920788,-900.9215,-144.07394)" />
    <path
       sodipodi:type="star"
       style="fill:#6abe30;fill-opacity:1;fill-rule:nonzero;stroke:none"
       id="path3804"
       sodipodi:sides="8"
       sodipodi:cx="452.54834"
       sodipodi:cy="1230.149"
       sodipodi:r1="155.96965"
       sodipodi:r2="144.09715"
       sodipodi:arg1="0.28897541"
       sodipodi:arg2="0.68167449"
       inkscape:flatsided="true"
       inkscape:rounded="1.0408341e-17"
       inkscape:randomized="0"
       d="m 602.05092,1274.5958 -75.21686,92.6961 -118.73243,12.3597 -92.69615,-75.2168 -12.35972,-118.7325 75.21686,-92.6961 118.73243,-12.3597 92.69615,75.2168 z"
       transform="matrix(1.1218255,0,0,1.1070647,-920.5381,-815.29038)" />
    <path
       sodipodi:type="star"
       style="fill:#6abe30;fill-opacity:1;fill-rule:nonzero;stroke:none"
       id="path3806"
       sodipodi:sides="8"
       sodipodi:cx="-234.35539"
       sodipodi:cy="2115.0427"
       sodipodi:r1="252.23895"
       sodipodi:r2="233.03841"
       sodipodi:arg1="0.61466295"
       sodipodi:arg2="1.007362"
       inkscape:flatsided="true"
       inkscape:rounded="1.0408341e-17"
       inkscape:randomized="0"
       d="m -28.284274,2260.5047 -163.213976,103.1095 -188.31911,-42.5004 -103.10946,-163.2139 42.50031,-188.3191 163.21397,-103.1095 188.319113,42.5003 103.109462,163.214 z"
       transform="matrix(0.6926369,0,0,0.61273602,-591.4831,-331.21248)" />
    <rect
       style="fill:#6abe30;fill-opacity:1;fill-rule:nonzero;stroke:none"
       id="rect3006"
       width="343.45187"
       height="436.38589"
       x="-1531.3912"
       y="-561.86163" />
    <rect
       style="fill:#6abe30;fill-opacity:1;fill-rule:nonzero;stroke:none"
       id="rect3012"
       width="59.599007"
       height="121.21831"
       x="-1156.6246"
       y="-76.98838" />
    <g
       id="g3020"
       transform="matrix(0,1,-1,0,-1233.227,1584.0881)"
       inkscape:export-filename="/Users/henri/projects/spacesweeper/core/assets/turret1.png"
       inkscape:export-xdpi="90"
       inkscape:export-ydpi="90">
      <path
         inkscape:export-ydpi="90"
         inkscape:export-xdpi="90"
         inkscape:export-filename="/Users/henri/projects/spacesweeper/core/assets/turret1.png"
         transform="matrix(0.25417799,0.70812541,-0.73763058,0.26476871,-1058.2783,-61.768105)"
         d="m 189.90867,523.04224 c 0,26.77881 -22.61303,48.48732 -50.50762,48.48732 -27.89459,0 -50.507629,-21.70851 -50.507629,-48.48732 0,-26.77881 22.613039,-48.48733 50.507629,-48.48733 27.89459,0 50.50762,21.70852 50.50762,48.48733 z"
         sodipodi:ry="48.487324"
         sodipodi:rx="50.507626"
         sodipodi:cy="523.04224"
         sodipodi:cx="139.40105"
         id="path3800"
         style="fill:#45283c;fill-opacity:1;fill-rule:nonzero;stroke:none"
         sodipodi:type="arc" />
      <rect
         inkscape:export-ydpi="90"
         inkscape:export-xdpi="90"
         inkscape:export-filename="/Users/henri/projects/spacesweeper/core/assets/turret1.png"
         inkscape:transform-center-y="-34.547219"
         inkscape:transform-center-x="-7.576144"
         transform="matrix(0,1,-1,0,0,0)"
         y="1401.0815"
         x="137.43054"
         height="15.152288"
         width="19.192904"
         id="rect3798"
         style="fill:#fbf236;fill-opacity:1;fill-rule:nonzero;stroke:none" />
    </g>
  </g>
</svg>
