<?xml version="1.0" encoding="UTF-8" standalone="no"?>
<!-- Created with Inkscape (http://www.inkscape.org/) -->

<svg
   xmlns:dc="http://purl.org/dc/elements/1.1/"
   xmlns:cc="http://creativecommons.org/ns#"
   xmlns:rdf="http://www.w3.org/1999/02/22-rdf-syntax-ns#"
   xmlns:svg="http://www.w3.org/2000/svg"
   xmlns="http://www.w3.org/2000/svg"
   xmlns:sodipodi="http://sodipodi.sourceforge.net/DTD/sodipodi-0.dtd"
   xmlns:inkscape="http://www.inkscape.org/namespaces/inkscape"
   width="744.09448819"
   height="1052.3622047"
   id="svg2"
   version="1.1"
   inkscape:version="0.48.2 r9819"
   sodipodi:docname="space_sweeper.svg">
  <defs
     id="defs4" />
  <sodipodi:namedview
     id="base"
     pagecolor="#ffffff"
     bordercolor="#666666"
     borderopacity="1.0"
     inkscape:pageopacity="0.0"
     inkscape:pageshadow="2"
     inkscape:zoom="0.98994948"
     inkscape:cx="-1958.1247"
     inkscape:cy="937.07341"
     inkscape:document-units="px"
     inkscape:current-layer="layer1"
     showgrid="false"
     showborder="false"
     inkscape:showpageshadow="false"
     inkscape:window-width="1958"
     inkscape:window-height="1060"
     inkscape:window-x="296"
     inkscape:window-y="92"
     inkscape:window-maximized="0" />
  <metadata
     id="metadata7">
    <rdf:RDF>
      <cc:Work
         rdf:about="">
        <dc:format>image/svg+xml</dc:format>
        <dc:type
           rdf:resource="http://purl.org/dc/dcmitype/StillImage" />
        <dc:title></dc:title>
      </cc:Work>
    </rdf:RDF>
  </metadata>
  <g
     inkscape:label="Layer 1"
     inkscape:groupmode="layer"
     id="layer1">
    <rect
       y="-74.527046"
       x="-2222.2205"
       height="600"
       width="1000"
       id="rect3013"
       style="fill:#000000;fill-opacity:1;fill-rule:nonzero;stroke:none" />
    <rect
       style="fill:#000000;fill-opacity:1;fill-rule:nonzero;stroke:none"
       id="rect2985"
       width="1019.6744"
       height="611.80835"
       x="-1132.2205"
       y="-180.62111" />
    <rect
       style="fill:#ffffff;fill-opacity:1;fill-rule:nonzero;stroke:none"
       id="rect2987"
       width="319.78922"
       height="117.03255"
       x="-805.83142"
       y="28.168543"
       inkscape:export-filename="/Users/henri/projects/spacesweeper/core/assets/ship1.png"
       inkscape:export-xdpi="90"
       inkscape:export-ydpi="90" />
    <rect
       style="fill:#ffffff;fill-opacity:1;fill-rule:nonzero;stroke:none"
       id="rect2989"
       width="102.85714"
       height="100.00001"
       x="-417.9118"
       y="-91.054863" />
    <path
       sodipodi:type="arc"
       style="fill:#5b6ee1;fill-opacity:1;fill-rule:nonzero;stroke:none"
       id="path2991"
       sodipodi:cx="425.71429"
       sodipodi:cy="1470.9336"
       sodipodi:rx="1234.2858"
       sodipodi:ry="198.57143"
       d="m 1660.0001,1470.9336 a 1234.2858,198.57143 0 1 1 -2468.57157,0 1234.2858,198.57143 0 1 1 2468.57157,0 z"
       transform="matrix(0.48268127,0,0,2.3076125,-801.4191,-2638.4051)" />
    <path
       sodipodi:type="star"
       style="fill:#8f563b;fill-opacity:1;fill-rule:nonzero;stroke:none"
       id="path2993"
       sodipodi:sides="8"
       sodipodi:cx="-871.42859"
       sodipodi:cy="38.076469"
       sodipodi:r1="133.40134"
       sodipodi:r2="115.52895"
       sodipodi:arg1="0.7551044"
       sodipodi:arg2="1.1478035"
       inkscape:flatsided="true"
       inkscape:rounded="1.0408341e-17"
       inkscape:randomized="0"
       d="m -774.28574,129.50504 -93.10224,41.91156 -95.46918,-36.19728 -41.91154,-93.10224 36.19726,-95.469177 93.10224,-41.911563 95.46918,36.197277 41.91156,93.102242 z"
       transform="matrix(0.30347034,0,0,0.30620143,-77.565958,-116.05174)" />
    <path
       transform="matrix(0.43541398,0,0,0.45930215,181.95074,-21.317113)"
       d="m -774.28574,129.50504 -93.10224,41.91156 -95.46918,-36.19728 -41.91154,-93.10224 36.19726,-95.469177 93.10224,-41.911563 95.46918,36.197277 41.91156,93.102242 z"
       inkscape:randomized="0"
       inkscape:rounded="1.0408341e-17"
       inkscape:flatsided="true"
       sodipodi:arg2="1.1478035"
       sodipodi:arg1="0.7551044"
       sodipodi:r2="115.52895"
       sodipodi:r1="133.40134"
       sodipodi:cy="38.076469"
       sodipodi:cx="-871.42859"
       sodipodi:sides="8"
       id="path2995"
       style="fill:#8f563b;fill-opacity:1;fill-rule:nonzero;stroke:none"
       sodipodi:type="star" />
    <path
       sodipodi:type="star"
       style="fill:#8f563b;fill-opacity:1;fill-rule:nonzero;stroke:none"
       id="path2997"
       sodipodi:sides="8"
       sodipodi:cx="-871.42859"
       sodipodi:cy="38.076469"
       sodipodi:r1="133.40134"
       sodipodi:r2="115.52895"
       sodipodi:arg1="0.7551044"
       sodipodi:arg2="1.1478035"
       inkscape:flatsided="true"
       inkscape:rounded="1.0408341e-17"
       inkscape:randomized="0"
       d="m -774.28574,129.50504 -93.10224,41.91156 -95.46918,-36.19728 -41.91154,-93.10224 36.19726,-95.469177 93.10224,-41.911563 95.46918,36.197277 41.91156,93.102242 z"
       transform="matrix(0.31498395,0,0,0.31498395,-622.15778,-280.60822)"
       inkscape:export-filename="/Users/henri/projects/spacesweeper/core/assets/asteroid1.png"
       inkscape:export-xdpi="90"
       inkscape:export-ydpi="90" />
    <path
       style="fill:none;stroke:#ab9db2;stroke-width:4.33426237;stroke-linecap:butt;stroke-linejoin:miter;stroke-miterlimit:4;stroke-opacity:1;stroke-dasharray:none"
       d="m -722.12696,251.46322 c 341.42964,-266.829928 57.66169,-400.29215 336.7024,-269.473588"
       id="path3003"
       inkscape:connector-curvature="0" />
    <path
       sodipodi:type="arc"
       style="fill:#ac3232;fill-opacity:1;stroke:none"
       id="path3792"
       sodipodi:cx="-1006.1119"
       sodipodi:cy="145.24519"
       sodipodi:rx="16.162441"
       sodipodi:ry="22.223356"
       d="m -989.94944,145.24519 a 16.162441,22.223356 0 1 1 -32.32486,0 16.162441,22.223356 0 1 1 32.32486,0 z"
       transform="matrix(0.49497473,0,0,0.35998163,-402.91514,-428.50161)"
       inkscape:export-filename="/Users/henri/projects/spacesweeper/core/assets/bullet1.png"
       inkscape:export-xdpi="90"
       inkscape:export-ydpi="90" />
    <path
       d="m -989.94944,145.24519 a 16.162441,22.223356 0 1 1 -32.32486,0 16.162441,22.223356 0 1 1 32.32486,0 z"
       sodipodi:ry="22.223356"
       sodipodi:rx="16.162441"
       sodipodi:cy="145.24519"
       sodipodi:cx="-1006.1119"
       id="path3794"
       style="fill:#ac3232;fill-opacity:1;stroke:none"
       sodipodi:type="arc"
       transform="translate(52.527932,-52.527932)" />
    <path
       transform="translate(109.09647,-113.13708)"
       sodipodi:type="arc"
       style="fill:#ac3232;fill-opacity:1;stroke:none"
       id="path3796"
       sodipodi:cx="-1006.1119"
       sodipodi:cy="145.24519"
       sodipodi:rx="16.162441"
       sodipodi:ry="22.223356"
       d="m -989.94944,145.24519 a 16.162441,22.223356 0 1 1 -32.32486,0 16.162441,22.223356 0 1 1 32.32486,0 z" />
    <path
       sodipodi:type="star"
       style="fill:#6abe30;fill-opacity:1;fill-rule:nonzero;stroke:none"
       id="path3802"
       sodipodi:sides="8"
       sodipodi:cx="84.852814"
       sodipodi:cy="1197.8241"
       sodipodi:r1="196.16736"
       sodipodi:r2="181.23502"
       sodipodi:arg1="0.56514944"
       sodipodi:arg2="0.95784852"
       inkscape:flatsided="true"
       inkscape:rounded="1.0408341e-17"
       inkscape:randomized="0"
       d="m 250.51783,1302.88 -122.80787,86.3727 -147.913011,-25.7636 -86.372709,-122.8079 25.763557,-147.913 122.807874,-86.3727 147.913009,25.7636 86.3727,122.8079 z"
       transform="matrix(0.5634439,0,0,0.56920788,-900.9215,-144.07394)" />
    <path
       sodipodi:type="star"
       style="fill:#6abe30;fill-opacity:1;fill-rule:nonzero;stroke:none"
       id="path3804"
       sodipodi:sides="8"
       sodipodi:cx="452.54834"
       sodipodi:cy="1230.149"
       sodipodi:r1="155.96965"
       sodipodi:r2="144.09715"
       sodipodi:arg1="0.28897541"
       sodipodi:arg2="0.68167449"
       inkscape:flatsided="true"
       inkscape:rounded="1.0408341e-17"
       inkscape:randomized="0"
       d="m 602.05092,1274.5958 -75.21686,92.6961 -118.73243,12.3597 -92.69615,-75.2168 -12.35972,-118.7325 75.21686,-92.6961 118.73243,-12.3597 92.69615,75.2168 z"
       transform="matrix(1.1218255,0,0,1.1070647,-920.5381,-815.29038)" />
    <path
       sodipodi:type="star"
       style="fill:#6abe30;fill-opacity:1;fill-rule:nonzero;stroke:none"
       id="path3806"
       sodipodi:sides="8"
       sodipodi:cx="-234.35539"
       sodipodi:cy="2115.0427"
       sodipodi:r1="252.23895"
       sodipodi:r2="233.03841"
       sodipodi:arg1="0.61466295"
       sodipodi:arg2="1.007362"
       inkscape:flatsided="true"
       inkscape:rounded="1.0408341e-17"
       inkscape:randomized="0"
       d="m -28.284274,2260.5047 -163.213976,103.1095 -188.31911,-42.5004 -103.10946,-163.2139 42.50031,-188.3191 163.21397,-103.1095 188.319113,42.5003 103.109462,163.214 z"
       transform="matrix(0.6926369,0,0,0.61273602,-591.4831,-331.21248)" />
    <rect
       style="fill:#6abe30;fill-opacity:1;fill-rule:nonzero;stroke:none"
       id="rect3006"
       width="343.45187"
       height="436.38589"
       x="-1531.3912"
       y="-561.86163" />
    <rect
       style="fill:#6abe30;fill-opacity:1;fill-rule:nonzero;stroke:none"
       id="rect3012"
       width="59.599007"
       height="121.21831"
       x="-1156.6246"
       y="-76.98838" />
    <g
       id="g3020"
       transform="matrix(0,1,-1,0,-778.94128,1031.2309)"
       inkscape:export-filename="/Users/henri/projects/spacesweeper/core/assets/turret1.png"
       inkscape:export-xdpi="90"
       inkscape:export-ydpi="90">
      <path
         inkscape:export-ydpi="90"
         inkscape:export-xdpi="90"
         inkscape:export-filename="/Users/henri/projects/spacesweeper/core/assets/turret1.png"
         transform="matrix(0.25417799,0.70812541,-0.73763058,0.26476871,-1058.2783,-61.768105)"
         d="m 189.90867,523.04224 c 0,26.77881 -22.61303,48.48732 -50.50762,48.48732 -27.89459,0 -50.507629,-21.70851 -50.507629,-48.48732 0,-26.77881 22.613039,-48.48733 50.507629,-48.48733 27.89459,0 50.50762,21.70852 50.50762,48.48733 z"
         sodipodi:ry="48.487324"
         sodipodi:rx="50.507626"
         sodipodi:cy="523.04224"
         sodipodi:cx="139.40105"
         id="path3800"
         style="fill:#45283c;fill-opacity:1;fill-rule:nonzero;stroke:none"
         sodipodi:type="arc" />
      <rect
         inkscape:export-ydpi="90"
         inkscape:export-xdpi="90"
         inkscape:export-filename="/Users/henri/projects/spacesweeper/core/assets/turret1.png"
         inkscape:transform-center-y="-34.547219"
         inkscape:transform-center-x="-7.576144"
         transform="matrix(0,1,-1,0,0,0)"
         y="1401.0815"
         x="137.43054"
         height="15.152288"
         width="19.192904"
         id="rect3798"
         style="fill:#fbf236;fill-opacity:1;fill-rule:nonzero;stroke:none" />
    </g>
    <g
       id="g3065"
       transform="matrix(1.2189327,0,0,1.8779517,383.27702,-189.75122)"
       inkscape:export-filename="/Users/henri/projects/spacesweeper/core/assets/logo1.png"
       inkscape:export-xdpi="90"
       inkscape:export-ydpi="90">
      <path
         transform="translate(45.000001,90.714287)"
         sodipodi:type="inkscape:offset"
         inkscape:radius="5.8408451"
         inkscape:original="M -1844.8438 78.46875 C -1851.6914 78.468799 -1857.5387 80.922459 -1862.375 85.78125 C -1867.2338 90.617526 -1869.6562 96.433715 -1869.6562 103.28125 C -1869.6562 110.12884 -1867.2338 115.97627 -1862.375 120.8125 C -1857.5387 125.67134 -1851.6914 128.09375 -1844.8438 128.09375 C -1840.9568 128.09375 -1837.2928 127.24015 -1833.8125 125.5 L -1833.8125 120.34375 C -1837.1798 122.53588 -1840.8438 123.625 -1844.8438 123.625 C -1850.4485 123.625 -1855.2413 121.63373 -1859.2188 117.65625 C -1863.1961 113.6788 -1865.1875 108.88589 -1865.1875 103.28125 C -1865.1875 97.676672 -1863.1961 92.883752 -1859.2188 88.90625 C -1855.2413 84.928826 -1850.4484 82.968795 -1844.8438 82.96875 C -1840.8438 82.968795 -1837.1798 84.057916 -1833.8125 86.25 L -1833.8125 81.09375 C -1837.2928 79.353656 -1840.9568 78.468799 -1844.8438 78.46875 z M -1946.8125 78.5 C -1951.016 78.296656 -1954.602 79.098359 -1957.5625 80.90625 C -1961.2914 83.188818 -1963.2653 86.648446 -1963.4688 91.28125 C -1963.5818 94.015792 -1962.6882 96.495404 -1960.8125 98.6875 C -1958.3492 101.55763 -1954.2714 103.80173 -1948.5312 105.40625 C -1940.5764 107.6436 -1936.6629 110.87636 -1936.8438 115.125 C -1936.9568 117.38493 -1938.0772 119.35892 -1940.1562 121.03125 C -1942.4839 122.90699 -1945.3548 123.76059 -1948.8125 123.625 C -1951.0724 123.512 -1953.1814 122.94582 -1955.125 121.90625 C -1957.3397 120.7085 -1958.8081 119.13104 -1959.5312 117.1875 L -1963.75 118.71875 C -1962.6878 121.58886 -1960.6393 123.87621 -1957.6562 125.59375 C -1955.0347 127.1079 -1952.1726 127.9269 -1949.0312 128.0625 C -1948.7375 128.0851 -1948.45 128.09375 -1948.1562 128.09375 C -1943.9303 128.09375 -1940.3268 126.89552 -1937.3438 124.5 C -1934.225 121.99149 -1932.5558 118.91974 -1932.375 115.28125 C -1932.2621 112.52416 -1933.1555 110.0585 -1935.0312 107.84375 C -1937.4947 104.95107 -1941.6036 102.69832 -1947.3438 101.09375 C -1955.2987 98.856452 -1959.1808 95.658293 -1959 91.5 C -1958.8644 88.449141 -1957.5917 86.187743 -1955.2188 84.71875 C -1953.0492 83.408038 -1950.3308 82.8332 -1947.0312 82.96875 C -1943.1895 83.149589 -1940.1609 84.408373 -1937.9688 86.78125 L -1934.6875 83.75 C -1937.7159 80.495756 -1941.7503 78.726041 -1946.8125 78.5 z M -1770.9688 78.5 C -1775.1723 78.296656 -1778.727 79.098359 -1781.6875 80.90625 C -1785.4163 83.188818 -1787.3903 86.648446 -1787.5938 91.28125 C -1787.7068 94.015792 -1786.8446 96.495404 -1784.9688 98.6875 C -1782.5054 101.55763 -1778.3964 103.80173 -1772.6562 105.40625 C -1764.7012 107.6436 -1760.8193 110.87636 -1761 115.125 C -1761.1131 117.38493 -1762.2022 119.35892 -1764.2812 121.03125 C -1766.6091 122.90699 -1769.5112 123.76059 -1772.9688 123.625 C -1775.2288 123.512 -1777.3065 122.94582 -1779.25 121.90625 C -1781.4648 120.7085 -1782.9331 119.13104 -1783.6562 117.1875 L -1787.875 118.71875 C -1786.8129 121.58886 -1784.7957 123.87621 -1781.8125 125.59375 C -1779.191 127.1079 -1776.2976 127.9269 -1773.1562 128.0625 C -1772.8626 128.0851 -1772.575 128.09375 -1772.2812 128.09375 C -1768.0552 128.09375 -1764.4519 126.89552 -1761.4688 124.5 C -1758.3501 121.99149 -1756.6808 118.91974 -1756.5 115.28125 C -1756.387 112.52416 -1757.2805 110.0585 -1759.1562 107.84375 C -1761.6195 104.95107 -1765.7286 102.69832 -1771.4688 101.09375 C -1779.4237 98.856452 -1783.3058 95.658293 -1783.125 91.5 C -1782.9894 88.449141 -1781.748 86.187743 -1779.375 84.71875 C -1777.2055 83.408038 -1774.4558 82.8332 -1771.1562 82.96875 C -1767.3145 83.149589 -1764.2859 84.408373 -1762.0938 86.78125 L -1758.8125 83.75 C -1761.8408 80.495756 -1765.9065 78.726041 -1770.9688 78.5 z M -1928.4375 78.96875 L -1928.4375 127.625 L -1923.9688 127.625 L -1923.9688 105.65625 L -1910.9375 105.65625 C -1907.2765 105.65627 -1904.1215 104.38018 -1901.5 101.78125 C -1898.9011 99.159762 -1897.5938 96.004859 -1897.5938 92.34375 C -1897.5938 88.637513 -1898.9011 85.473955 -1901.5 82.875 C -1904.1215 80.253535 -1907.2765 78.968799 -1910.9375 78.96875 L -1928.4375 78.96875 z M -1879.5938 78.96875 L -1910.375 127.625 L -1905.0938 127.625 L -1897.4062 115.46875 L -1878.0625 115.46875 L -1878.0625 127.625 L -1873.625 127.625 L -1873.625 78.96875 L -1879.5938 78.96875 z M -1829.8438 78.96875 L -1829.8438 127.625 L -1805 127.625 L -1805 123.15625 L -1825.375 123.15625 L -1825.375 105.46875 L -1809.25 105.46875 L -1809.25 101 L -1825.375 101 L -1825.375 83.4375 L -1805 83.4375 L -1805 78.96875 L -1829.8438 78.96875 z M -1753.125 78.96875 L -1753.125 127.625 L -1747.1562 127.625 L -1721.6562 87.3125 L -1721.6562 127.625 L -1715.6875 127.625 L -1684.9062 78.96875 L -1690.2188 78.96875 L -1717.1875 121.65625 L -1717.1875 78.96875 L -1721.6562 78.96875 L -1748.6562 121.65625 L -1748.6562 78.96875 L -1753.125 78.96875 z M -1681.7812 78.96875 L -1681.7812 127.625 L -1656.9062 127.625 L -1656.9062 123.15625 L -1677.2812 123.15625 L -1677.2812 105.46875 L -1661.1875 105.46875 L -1661.1875 101 L -1677.2812 101 L -1677.2812 83.4375 L -1656.9062 83.4375 L -1656.9062 78.96875 L -1681.7812 78.96875 z M -1653.0312 78.96875 L -1653.0312 127.625 L -1628.1875 127.625 L -1628.1875 123.15625 L -1648.5625 123.15625 L -1648.5625 105.46875 L -1632.4375 105.46875 L -1632.4375 101 L -1648.5625 101 L -1648.5625 83.4375 L -1628.1875 83.4375 L -1628.1875 78.96875 L -1653.0312 78.96875 z M -1624.1875 78.96875 L -1624.1875 127.625 L -1619.6875 127.625 L -1619.6875 105.65625 L -1606.6562 105.65625 C -1602.9952 105.65627 -1599.8403 104.38018 -1597.2188 101.78125 C -1594.6198 99.159762 -1593.3125 96.004859 -1593.3125 92.34375 C -1593.3125 88.637513 -1594.6199 85.473955 -1597.2188 82.875 C -1599.8404 80.253535 -1602.9952 78.968799 -1606.6562 78.96875 L -1624.1875 78.96875 z M -1589.2812 78.96875 L -1589.2812 127.625 L -1564.4375 127.625 L -1564.4375 123.15625 L -1584.8125 123.15625 L -1584.8125 105.46875 L -1568.7188 105.46875 L -1568.7188 101 L -1584.8125 101 L -1584.8125 83.4375 L -1564.4375 83.4375 L -1564.4375 78.96875 L -1589.2812 78.96875 z M -1560.4375 78.96875 L -1560.4375 127.59375 L -1555.9688 127.59375 L -1555.9688 105.625 L -1544.3125 105.625 L -1532.875 127.625 L -1527.875 127.625 L -1539.5 105.1875 C -1536.63 104.41915 -1534.268 102.85034 -1532.4375 100.5 C -1530.5618 98.081908 -1529.625 95.36343 -1529.625 92.3125 C -1529.625 88.628862 -1530.9325 85.473955 -1533.5312 82.875 C -1536.1302 80.253535 -1539.2539 78.968799 -1542.9375 78.96875 L -1560.4375 78.96875 z M -1923.9688 83.4375 L -1910.9375 83.4375 C -1908.4968 83.437544 -1906.3964 84.291152 -1904.6562 86.03125 C -1902.9387 87.771432 -1902.0626 89.88047 -1902.0625 92.34375 C -1902.0626 94.784501 -1902.9388 96.876239 -1904.6562 98.59375 C -1906.3964 100.33392 -1908.4968 101.18752 -1910.9375 101.1875 L -1923.9688 101.1875 L -1923.9688 83.4375 z M -1619.6875 83.4375 L -1606.6562 83.4375 C -1604.2155 83.437544 -1602.1152 84.291152 -1600.375 86.03125 C -1598.6575 87.771432 -1597.8125 89.88047 -1597.8125 92.34375 C -1597.8125 94.784501 -1598.6575 96.876239 -1600.375 98.59375 C -1602.1152 100.33392 -1604.2155 101.18752 -1606.6562 101.1875 L -1619.6875 101.1875 L -1619.6875 83.4375 z M -1555.9688 83.4375 L -1542.9375 83.4375 C -1540.4968 83.437544 -1538.4277 84.291152 -1536.6875 86.03125 C -1534.97 87.771432 -1534.0937 89.871819 -1534.0938 92.3125 C -1534.0938 94.753251 -1534.97 96.853639 -1536.6875 98.59375 C -1538.4277 100.31132 -1540.4968 101.15627 -1542.9375 101.15625 L -1555.9688 101.15625 L -1555.9688 83.4375 z M -1878.0625 84.90625 L -1878.0625 111 L -1894.5938 111 L -1878.0625 84.90625 z "
         style="font-size:69.42488098px;font-style:normal;font-variant:normal;font-weight:normal;font-stretch:normal;line-height:125%;letter-spacing:0px;word-spacing:0px;fill:#663931;fill-opacity:1;stroke:none;font-family:Dolce Vita;-inkscape-font-specification:Dolce Vita"
         id="path3059"
         d="m -1844.8438,72.625 c -8.2428,5.9e-5 -15.8529,3.200957 -21.6562,9.03125 -0.4804,0.478176 -0.8372,1.029191 -1.2812,1.53125 l 0,-4.21875 a 5.8414292,5.8414292 0 0 0 -5.8438,-5.84375 l -5.9688,0 a 5.8414292,5.8414292 0 0 0 -4.9374,2.71875 l -7.75,12.25 c -0.8003,-3.505722 -2.5311,-6.780967 -5.0938,-9.34375 -3.6037,-3.603633 -8.5351,-5.624933 -13.5625,-5.625 l -17.5,0 a 5.8414292,5.8414292 0 0 0 -5.4063,3.6875 c -3.6209,-2.517403 -8.0129,-3.942103 -12.6874,-4.15625 -0.011,-4.77e-4 -0.021,4.65e-4 -0.031,0 -5.0922,-0.241234 -9.9442,0.754169 -14.0313,3.25 a 5.8414292,5.8414292 0 0 0 -0.031,0.03125 c -5.1875,3.175413 -8.4169,8.934023 -8.6875,15.09375 -0.1715,4.149281 1.368,8.319721 4.0625,11.46875 3.5527,4.13942 8.7293,6.73995 15.125,8.53125 0.01,0.003 0.021,-0.003 0.031,0 3.4929,0.98592 5.7682,2.17962 6.7188,2.96875 0.9325,0.77417 0.7086,0.59632 0.6875,0.84375 -5e-4,0.006 3e-4,0.0252 0,0.0312 -0.024,0.48314 -0.022,0.70648 -1.125,1.59375 -1.162,0.93636 -2.3973,1.39276 -4.7187,1.3125 -0.022,-0.001 -0.04,0.001 -0.063,0 -1.439,-0.0802 -2.6272,-0.41399 -3.7812,-1.03125 -1.2318,-0.67438 -1.5079,-1.11098 -1.6875,-1.59375 a 5.8414292,5.8414292 0 0 0 -7.4687,-3.46875 l -4.2188,1.53125 a 5.8414292,5.8414292 0 0 0 -3.4688,7.53125 c 1.5601,4.21522 4.7319,7.64677 8.6563,9.90625 3.3713,1.94723 7.1608,3.01984 11.0937,3.21875 0.064,0.003 0.1237,0.0285 0.1876,0.0312 l 0,-0.0312 c 0.3969,0.0254 0.7747,0.0625 1.125,0.0625 5.1892,0 10.1446,-1.58578 14.125,-4.65625 a 5.8414292,5.8414292 0 0 0 5.5937,4.1875 l 4.4687,0 a 5.8414292,5.8414292 0 0 0 5.8438,-5.84375 l 0,-16.125 7.1875,0 c 1.4069,1e-5 2.791,-0.19583 4.1563,-0.5 l -8.5313,13.5 a 5.8414292,5.8414292 0 0 0 4.9375,8.96875 l 5.2812,0 a 5.8414292,5.8414292 0 0 0 4.9376,-2.71875 l 5.9687,-9.4375 10.2813,0 0,6.3125 a 5.8414292,5.8414292 0 0 0 5.8437,5.84375 l 4.4375,0 a 5.8414292,5.8414292 0 0 0 5.8438,-5.84375 l 0,-4.21875 c 0.4445,0.50295 0.8001,1.05235 1.2812,1.53125 5.8121,5.83923 13.4311,9 21.6562,9 3.7521,0 7.3874,-0.8809 10.875,-2.21875 a 5.8414292,5.8414292 0 0 0 4.125,1.75 l 24.8438,0 a 5.8414292,5.8414292 0 0 0 5.8438,-5.84375 l 0,-4.46875 A 5.8414292,5.8414292 0 0 0 -1805,117.3125 l -14.5312,0 0,-6 10.2812,0 a 5.8414292,5.8414292 0 0 0 5.8438,-5.84375 l 0,-4.46875 a 5.8414292,5.8414292 0 0 0 -5.8438,-5.84375 l -10.2812,0 0,-5.875 14.5312,0 a 5.8414292,5.8414292 0 0 0 5.8438,-5.84375 l 0,-4.46875 A 5.8414292,5.8414292 0 0 0 -1805,73.125 l -24.8438,0 a 5.8414292,5.8414292 0 0 0 -4.125,1.75 c -3.4713,-1.340168 -7.1024,-2.249952 -10.875,-2.25 z m 74.125,0.03125 c -5.0907,-0.241128 -9.9285,0.763693 -14,3.25 a 5.8414292,5.8414292 0 0 0 -0.031,0.03125 c -5.1873,3.175404 -8.4169,8.933939 -8.6875,15.09375 -0.1696,4.104683 1.3156,8.295232 4.0313,11.46875 3.5685,4.15777 8.7657,6.74147 15.1562,8.53125 0.01,0.003 0.021,-0.003 0.031,0 3.491,0.98538 5.747,2.18477 6.6876,2.96875 0.9227,0.76912 0.709,0.58283 0.6874,0.84375 -4e-4,0.006 3e-4,0.0249 0,0.0312 -0.026,0.53257 -0.012,0.72355 -1.0937,1.59375 -1.1428,0.92084 -2.4284,1.39251 -4.75,1.3125 -0.022,-0.001 -0.04,0.001 -0.062,0 -1.4348,-0.0797 -2.5736,-0.40202 -3.75,-1.03125 -1.2318,-0.67435 -1.5078,-1.11082 -1.6875,-1.59375 a 5.8414292,5.8414292 0 0 0 -7.4687,-3.46875 l -4.2188,1.53125 a 5.8414292,5.8414292 0 0 0 -3.4688,7.53125 c 1.547,4.18033 4.6852,7.63796 8.625,9.90625 3.3885,1.95711 7.1933,3.0202 11.125,3.21875 0.064,0.003 0.1237,0.0285 0.1876,0.0312 l 0,-0.0312 c 0.397,0.0254 0.7747,0.0625 1.125,0.0625 4.9946,0 9.7542,-1.4979 13.6562,-4.34375 a 5.8414292,5.8414292 0 0 0 5.5,3.875 l 5.9688,0 a 5.8414292,5.8414292 0 0 0 4.9374,-2.71875 l 14.7188,-23.28125 0,20.15625 a 5.8414292,5.8414292 0 0 0 5.8438,5.84375 l 5.9687,0 a 5.8414292,5.8414292 0 0 0 4.9375,-2.71875 l 23.125,-36.5625 0,33.4375 a 5.8414292,5.8414292 0 0 0 5.8438,5.84375 l 24.875,0 a 5.8414292,5.8414292 0 0 0 1.9374,-0.34375 5.8414292,5.8414292 0 0 0 1.9376,0.34375 l 24.8437,0 a 5.8414292,5.8414292 0 0 0 2,-0.375 5.8414292,5.8414292 0 0 0 2,0.375 l 4.5,0 a 5.8414292,5.8414292 0 0 0 5.8437,-5.84375 l 0,-16.125 7.1876,0 c 4.1478,2e-5 8.2027,-1.41503 11.5312,-3.90625 l 0,20.03125 a 5.8414292,5.8414292 0 0 0 5.8438,5.84375 l 24.8437,0 a 5.8414292,5.8414292 0 0 0 2.0625,-0.375 5.8414292,5.8414292 0 0 0 1.9375,0.34375 l 4.4687,0 a 5.8414292,5.8414292 0 0 0 5.8438,-5.84375 l 0,-16.125 2.2812,0 9.7813,18.84375 a 5.8414292,5.8414292 0 0 0 5.1875,3.15625 l 5,0 a 5.8414292,5.8414292 0 0 0 5.1875,-8.53125 l -8.9375,-17.25 c 1.404,-1.0356 2.7021,-2.20809 3.7812,-3.59375 a 5.8414292,5.8414292 0 0 0 0.031,0 c 2.5978,-3.34906 4.0313,-7.534684 4.0313,-11.78125 0,-5.05769 -2.0585,-9.95514 -5.625,-13.53125 -0.01,-0.0057 0.01,-0.02554 0,-0.03125 -3.5734,-3.594712 -8.4978,-5.624933 -13.5313,-5.625 l -17.5,0 a 5.8414292,5.8414292 0 0 0 -2,0.375 5.8414292,5.8414292 0 0 0 -2,-0.375 l -24.8437,0 a 5.8414292,5.8414292 0 0 0 -5.5938,4.15625 c -3.3751,-2.637534 -7.518,-4.156193 -11.7812,-4.15625 l -17.5313,0 a 5.8414292,5.8414292 0 0 0 -2,0.375 5.8414292,5.8414292 0 0 0 -2,-0.375 l -24.8437,0 a 5.8414292,5.8414292 0 0 0 -1.9376,0.34375 5.8414292,5.8414292 0 0 0 -1.9374,-0.34375 l -24.875,0 a 5.8414292,5.8414292 0 0 0 -1.5626,0.21875 5.8414292,5.8414292 0 0 0 -1.5624,-0.21875 l -5.3126,0 a 5.8414292,5.8414292 0 0 0 -4.9374,2.71875 l -16.1876,25.625 0,-22.5 a 5.8414292,5.8414292 0 0 0 -5.8437,-5.84375 l -4.4687,0 a 5.8414292,5.8414292 0 0 0 -4.9376,2.71875 l -16.2187,25.65625 0,-22.53125 a 5.8414292,5.8414292 0 0 0 -5.8437,-5.84375 l -4.4688,0 a 5.8414292,5.8414292 0 0 0 -5.3125,3.4375 c -3.5456,-2.333379 -7.7628,-3.700729 -12.25,-3.90625 -0.01,-4.77e-4 -0.021,4.65e-4 -0.031,0 z m -176.5937,16.15625 c 0.013,6.13e-4 0.018,-6.37e-4 0.031,0 2.6871,0.132173 3.9652,0.783544 5.0312,1.9375 a 5.8414292,5.8414292 0 0 0 7.9688,0.5625 l 0,9.40625 c -3.1513,-2.308827 -6.998,-3.997802 -11.4688,-5.25 -0.011,-0.0032 -0.02,0.0032 -0.031,0 -3.4986,-0.987443 -5.7734,-2.190464 -6.7188,-2.96875 -0.9484,-0.780773 -0.665,-0.548266 -0.6562,-0.75 0.068,-1.526381 0.1343,-1.516983 0.9687,-2.03125 0.018,-0.01105 0.013,-0.0197 0.031,-0.03125 0.9635,-0.572996 2.4004,-0.970415 4.8437,-0.875 z m 102.4687,0 c 2.9399,3.3e-5 5.3587,0.725983 7.8438,2.34375 a 5.8414292,5.8414292 0 0 0 1.3125,0.625 l 0,23.03125 a 5.8414292,5.8414292 0 0 0 -1.3125,0.625 c -2.4851,1.61779 -4.904,2.34375 -7.8438,2.34375 -4.2212,0 -7.2421,-1.24219 -10.25,-4.25 -3.0076,-3.00778 -4.2499,-6.02891 -4.25,-10.25 0,-4.221012 1.2424,-7.242155 4.25,-10.25 2.997,-2.996928 6.0072,-4.218716 10.25,-4.21875 z m 73.4063,0 c 0.013,6.13e-4 0.018,-6.37e-4 0.031,0 2.6871,0.132173 3.9652,0.783544 5.0312,1.9375 a 5.8414292,5.8414292 0 0 0 7.4062,0.96875 l 0,8.625 c -3.05,-2.107009 -6.6903,-3.694195 -10.9062,-4.875 -0.011,-0.0032 -0.02,0.0032 -0.031,0 -3.4986,-0.987443 -5.7734,-2.190464 -6.7188,-2.96875 -0.9484,-0.780773 -0.665,-0.548266 -0.6562,-0.75 0.069,-1.563915 0.124,-1.530865 0.9374,-2.03125 0.018,-0.01123 0.012,-0.01947 0.031,-0.03125 0.9439,-0.560779 2.4324,-0.970287 4.875,-0.875 z m -146.6875,0.46875 7.1875,0 c 1.0594,1.9e-5 1.3999,0.125664 2.125,0.84375 0.013,0.01325 0.018,0.01759 0.031,0.03125 0.7237,0.740701 0.8749,1.127877 0.875,2.1875 -1e-4,1.043026 -0.1319,1.38181 -0.875,2.125 -0.7539,0.753826 -1.0775,0.875009 -2.1563,0.875 l -7.1875,0 0,-6.0625 z m 246.6875,0 12.5625,0 0,6.34375 a 5.8414292,5.8414292 0 0 0 -2.3125,-0.46875 l -10.25,0 0,-5.875 z m 28.7187,0 12.6876,0 0,6.40625 a 5.8414292,5.8414292 0 0 0 -2.4063,-0.53125 l -10.2813,0 0,-5.875 z m 28.875,0 7.1876,0 c 1.0593,1.9e-5 1.3998,0.125592 2.125,0.84375 0.013,0.01325 0.017,0.01759 0.031,0.03125 0.6989,0.715186 0.8438,1.080408 0.8438,2.1875 0,1.092665 -0.1256,1.406832 -0.8438,2.125 -0.7539,0.753906 -1.0774,0.875009 -2.1562,0.875 l -7.1876,0 0,-6.0625 z m 34.875,0 12.6876,0 0,6.40625 a 5.8414292,5.8414292 0 0 0 -2.4376,-0.53125 l -10.25,0 0,-5.875 z m 28.8438,0 7.1875,0 c 1.0589,1.9e-5 1.3479,0.103961 2.0937,0.84375 0.014,0.01398 0.017,0.01681 0.031,0.03125 0.7301,0.747283 0.875,1.132011 0.875,2.15625 0,1.006388 -0.1473,1.404219 -0.8437,2.125 -0.025,0.02614 -0.036,0.03539 -0.063,0.0625 -0.7134,0.691892 -1.0407,0.812509 -2.0937,0.8125 l -7.1875,0 0,-6.03125 z m -333.7812,15.78125 0,0.0937 -0.063,0 0.063,-0.0937 z m 253.875,5.71875 0,6.53125 -12.6876,0 0,-6 10.2813,0 a 5.8414292,5.8414292 0 0 0 2.4063,-0.53125 z m 63.75,0 0,6.53125 -12.6876,0 0,-6 10.25,0 a 5.8414292,5.8414292 0 0 0 2.4376,-0.53125 z m -92.625,0.0625 a 5.8414292,5.8414292 0 0 0 0.031,0 l 0,6.46875 -12.5625,0 0,-6 10.25,0 a 5.8414292,5.8414292 0 0 0 2.2813,-0.46875 z" />
      <text
         xml:space="preserve"
         style="font-size:69.42488098px;font-style:normal;font-variant:normal;font-weight:normal;font-stretch:normal;line-height:125%;letter-spacing:0px;word-spacing:0px;fill:#df7126;fill-opacity:1;stroke:none;font-family:Dolce Vita;-inkscape-font-specification:Dolce Vita"
         x="-1919.4167"
         y="218.34811"
         id="text3061"
         sodipodi:linespacing="125%"><tspan
           sodipodi:role="line"
           id="tspan3063"
           x="-1919.4167"
           y="218.34811">Space Sweeper</tspan></text>
    </g>
    <rect
       style="fill:#ffffff;fill-opacity:1;fill-rule:nonzero;stroke:none"
       id="rect3070"
       width="4.0739536"
       height="4.0739536"
       x="-1539.6377"
       y="1539.0859"
       transform="matrix(0.70710678,0.70710678,-0.70710678,0.70710678,0,0)"
       inkscape:export-filename="/Users/henri/projects/spacesweeper/core/assets/star1.png"
       inkscape:export-xdpi="90"
       inkscape:export-ydpi="90" />
  </g>
</svg>
